<?xml version="1.0" encoding="utf-8"?>
<!-- Generator: Adobe Illustrator 23.0.1, SVG Export Plug-In . SVG Version: 6.00 Build 0)  -->
<svg version="1.1" id="Layer_1" xmlns="http://www.w3.org/2000/svg" xmlns:xlink="http://www.w3.org/1999/xlink" x="0px" y="0px"
	 viewBox="0 0 7438.7 4940.7" style="enable-background:new 0 0 7438.7 4940.7;" xml:space="preserve">
<style type="text/css">
	.st0{fill:#072F6A;}
	.st1{fill:#0B3D87;}
	.st2{fill:#1351AC;}
	.st3{font-family:'JKAbode-Demo';}
	.st4{font-size:295.4692px;}
	.st5{font-size:261.6052px;}
	.st6{letter-spacing:25.3;}
	.st7{fill:#3568B3;}
	.st8{fill:#5883C3;}
	.st9{fill:#153862;}
	.st10{fill:#42648D;}
	.st11{fill:#274C79;}
	.st12{fill:#204A6F;}
	.st13{fill:#2779C3;}
	.st14{fill:#226098;}
	.st15{font-family:'MyriadPro-Regular';}
	.st16{font-size:290.2633px;}
	.st17{font-size:785.4492px;}
</style>
<g id="lytix_blue_3">
	<path class="st0" d="M1314,123.7c-0.2-0.1-0.4-0.2-0.6-0.4c-44.6-23.8-82.8-27.4-114.6-10.6c-37.8,15.6-56.8,48.7-56.8,99.2v139
		c23.1,26,45.1,24.1,65.8-5.6v-139c0-16.4,4.8-27.8,14.3-34c15.2-5.3,33.9-2.1,56.1,9.8c0.2,0,0.4,0.1,0.5,0.2
		c29.3,15.8,54.3,39.7,75.1,71.5c19.9,30.5,30,59.7,30.5,87.7v138.9c23.1,24.4,45,22.5,65.8-5.5v-139c0.5-38.9-13-79.4-40.3-121.5
		C1383.5,173.9,1351.5,143.6,1314,123.7z"/>
	<polygon class="st1" points="1386.3,884 1386.3,1042.5 1562.6,936.4 1598.4,914.8 1598.4,755.1 1562.6,776.8 	"/>
	<polygon class="st2" points="1085.9,510.3 1085.9,424.5 947.7,343.7 947.7,510.3 947.7,808.5 1386.3,1042.8 1386.3,1042.5 
		1386.3,884 1085.9,729 	"/>
	<text transform="matrix(0.795 -0.4824 -2.652189e-02 0.9996 1405.3168 808.5571)" class="st1 st3 st4">ix</text>
	<text transform="matrix(1.0673 0.6012 -1.001550e-02 0.9999 1108.1826 655.937)" class="st2 st3 st5 st6">yt</text>
</g>
<g id="lytic_colored_3">
	<path class="st2" d="M2092.9,110.3c-0.2-0.1-0.4-0.2-0.6-0.4c-44.6-23.8-82.8-27.4-114.7-10.6c-37.8,15.6-56.8,48.7-56.8,99.2v139
		c23.1,26,45.1,24.1,65.8-5.6v-139c0-16.4,4.8-27.8,14.3-34c15.2-5.3,33.9-2.1,56.1,9.8c0.2,0,0.4,0.1,0.5,0.2
		c29.3,15.8,54.3,39.7,75.1,71.5c19.9,30.5,30.1,59.7,30.6,87.7v139c23.1,24.4,45,22.5,65.8-5.5v-139c0.5-38.9-12.9-79.4-40.4-121.5
		C2162.3,160.5,2130.3,130.2,2092.9,110.3z"/>
	<polygon class="st7" points="2165.2,870.6 2165.2,1029.1 2341.5,923 2377.3,901.4 2377.3,741.7 2341.5,763.4 	"/>
	<polygon class="st8" points="1864.8,496.9 1864.8,411.1 1726.5,330.3 1726.5,496.9 1726.5,795.1 2165.2,1029.4 2165.2,1029.1 
		2165.2,870.6 1864.8,715.6 	"/>
	<text transform="matrix(0.795 -0.4824 -2.652189e-02 0.9996 2184.1313 795.207)" class="st7 st3 st4">ix</text>
	<text transform="matrix(1.0673 0.6012 -1.001550e-02 0.9999 1886.9969 642.5873)" class="st8 st3 st5 st6">yt</text>
</g>
<g id="lytix_colored_4">
	<path class="st9" d="M2916.1,110.3c-0.2-0.1-0.4-0.2-0.6-0.4c-44.6-23.8-82.8-27.4-114.7-10.6c-37.8,15.6-56.8,48.7-56.8,99.2v139
		c23.1,26,45.1,24.1,65.8-5.6v-139c0-16.4,4.8-27.8,14.3-34c15.2-5.3,33.9-2.1,56.1,9.8c0.2,0,0.4,0.1,0.5,0.2
		c29.3,15.8,54.3,39.7,75.1,71.5c19.9,30.5,30.1,59.7,30.6,87.7V467c23.1,24.4,45,22.5,65.8-5.5v-139c0.5-38.9-12.9-79.4-40.4-121.5
		C2985.5,160.5,2953.6,130.2,2916.1,110.3z"/>
	<polygon class="st10" points="2988.4,870.5 2988.4,1029.1 3164.7,922.9 3200.5,901.4 3200.5,741.7 3164.7,763.4 	"/>
	<polygon class="st11" points="2688,496.9 2688,411.1 2549.8,330.2 2549.8,496.9 2549.8,795.1 2988.4,1029.4 2988.4,1029.1 
		2988.4,870.5 2688,715.6 	"/>
	<text transform="matrix(0.795 -0.4824 -2.652189e-02 0.9996 3007.3032 795.1866)" class="st10 st3 st4">ix</text>
	<text transform="matrix(1.0673 0.6012 -1.001550e-02 0.9999 2710.1697 642.5652)" class="st11 st3 st5 st6">yt</text>
</g>
<g id="lytix_colored_5">
	<path class="st12" d="M454.5,69.1c-0.2-0.1-0.4-0.2-0.6-0.4c-44.6-23.8-82.8-27.4-114.7-10.6c-37.8,15.6-56.8,48.7-56.8,99.2v139
		c23.1,26,45.1,24.1,65.8-5.6v-139c0-16.4,4.8-27.8,14.3-34.1c15.2-5.3,33.9-2,56.1,9.8c0.2,0,0.4,0.1,0.5,0.2
		c29.3,15.8,54.3,39.6,75.1,71.5c19.9,30.5,30.1,59.7,30.6,87.7v139c23.1,24.4,45,22.5,65.8-5.5v-139c0.5-38.9-12.9-79.4-40.4-121.5
		C523.9,119.3,492,89,454.5,69.1z"/>
	<polygon class="st13" points="526.8,829.4 526.8,987.9 703.1,881.8 738.9,860.2 738.9,700.5 703.1,722.2 	"/>
	<polygon class="st14" points="226.4,455.7 226.4,369.9 88.2,289.1 88.2,455.7 88.2,753.9 526.8,988.2 526.8,987.9 526.8,829.4 
		226.4,674.4 	"/>
	<text transform="matrix(0.795 -0.4824 -2.652189e-02 0.9996 542.7642 726.9261)" class="st13 st3 st4">ix</text>
	<text transform="matrix(1.0673 0.6012 -1.001550e-02 0.9999 175.005 533.7219)" class="st14 st3 st5 st6">lyt</text>
</g>
<g id="lytix_favicon">
	<g id="lytix_blue_3_1_">
		<path class="st0" d="M583.7,1510.1c-0.2-0.1-0.4-0.2-0.6-0.4c-44.6-23.8-82.8-27.4-114.6-10.6c-37.8,15.6-56.8,48.7-56.8,99.2v139
			c23.1,26,45.1,24.1,65.8-5.6v-139c0-16.4,4.8-27.8,14.3-34c15.2-5.3,33.9-2.1,56.1,9.8c0.2,0,0.4,0.1,0.5,0.2
			c29.3,15.8,54.3,39.7,75.1,71.5c19.9,30.5,30,59.7,30.5,87.7v138.9c23.1,24.4,45,22.5,65.8-5.5v-139c0.5-38.9-13-79.4-40.3-121.5
			C653.2,1560.3,621.2,1530,583.7,1510.1z"/>
		<polygon class="st1" points="656,2270.4 656,2428.9 832.3,2322.8 868.1,2301.2 868.1,2141.5 832.3,2163.2 		"/>
		<polygon class="st2" points="355.6,1896.7 355.6,1810.9 217.4,1730.1 217.4,1896.7 217.4,2194.9 656,2429.2 656,2428.9 
			656,2270.4 355.6,2115.4 		"/>
	</g>
	<text transform="matrix(1 0 0 1 788.0117 1704.3477)" class="st15 st16">favicon</text>
</g>
<g id="Layer_3">
	<g id="lytix_blue_3_2_">
		<path class="st0" d="M606.7,2523.6c-0.2-0.1-0.4-0.2-0.6-0.4c-44.6-23.8-82.8-27.4-114.6-10.6c-37.8,15.6-56.8,48.7-56.8,99.2v139
			c23.1,26,45.1,24.1,65.8-5.6v-139c0-16.4,4.8-27.8,14.3-34c15.2-5.3,33.9-2.1,56.1,9.8c0.2,0,0.4,0.1,0.5,0.2
			c29.3,15.8,54.3,39.7,75.1,71.5c19.9,30.5,30,59.7,30.5,87.7v138.9c23.1,24.4,45,22.5,65.8-5.5v-139c0.5-38.9-13-79.4-40.3-121.5
			C676.2,2573.8,644.2,2543.5,606.7,2523.6z"/>
		<polygon class="st2" points="378.6,2910.2 378.6,2824.4 240.4,2743.6 240.4,2910.2 240.4,3208.4 679,3442.7 679,3442.4 
			679,3283.9 378.6,3128.9 		"/>
	</g>
	<text transform="matrix(1 0 0 1 719.8273 3354.2424)" class="st1 st3 st17">ytix</text>
</g>
</svg>
