<?xml version="1.0" encoding="utf-8"?>
<!-- Generator: Adobe Illustrator 23.0.1, SVG Export Plug-In . SVG Version: 6.00 Build 0)  -->
<svg version="1.1" xmlns="http://www.w3.org/2000/svg" xmlns:xlink="http://www.w3.org/1999/xlink" x="0px" y="0px"
	 viewBox="0 0 4260.5 2568.3" style="enable-background:new 0 0 4260.5 2568.3;" xml:space="preserve">
<style type="text/css">
	.st0{fill:#153862;}
	.st1{fill:#029BDF;}
	.st2{fill:#67C6FB;}
	.st3{font-family:'JKAbode-Demo';}
	.st4{font-size:144.5072px;}
	.st5{font-size:295.4835px;}
	.st6{font-size:261.6183px;}
	.st7{letter-spacing:26.1;}
	.st8{fill:#17A2EC;}
	.st9{fill:#40B7F7;}
	.st10{fill:#42648D;}
	.st11{fill:#274C79;}
	.st12{fill:#204A6F;}
	.st13{fill:#2779C3;}
	.st14{fill:#226098;}
	.st15{fill:#FB7467;}
	.st16{fill:#FBBD67;}
	.st17{fill:#624615;}
	.st18{fill:#621F15;}
	.st19{fill:#CCCCCC;}
</style>
<g id="lytix_blue_1">
	<path class="st0" d="M394.3,36.5c-0.2-0.1-0.4-0.2-0.6-0.4C349.2,12.3,311,8.8,279.1,25.5c-37.8,15.6-56.8,48.7-56.8,99.2v139
		c23.1,26,45.1,24.1,65.8-5.6v-139c0-16.4,4.8-27.8,14.3-34.1c15.2-5.3,33.9-2,56.1,9.8c0.2,0,0.4,0.1,0.5,0.2
		c29.3,15.8,54.3,39.6,75.1,71.6c19.9,30.5,30,59.7,30.5,87.7v138.9c23.1,24.4,45,22.5,65.7-5.5v-139c0.5-38.9-12.9-79.4-40.3-121.5
		C463.8,86.7,431.8,56.5,394.3,36.5z"/>
	<polygon class="st1" points="466.6,796.8 466.6,955.3 642.9,849.2 678.7,827.6 678.7,667.9 642.9,689.6 	"/>
	<polygon class="st2" points="166.2,423.1 166.2,337.3 28,256.5 28,423.1 28,721.3 466.6,955.6 466.6,955.3 466.6,796.8 
		166.2,641.8 	"/>
	<text transform="matrix(0.8005 -0.4504 3.214186e-02 0.9995 470.3476 910.7151)" class="st2 st3 st4">lytix</text>
</g>
<g id="lytix_blue_2">
	<path class="st0" d="M1531.9,81c-0.2-0.1-0.3-0.2-0.6-0.3c-44.6-23.8-82.8-27.4-114.7-10.6c-37.8,15.6-56.8,48.7-56.8,99.2v139
		c23.1,26,45.1,24.1,65.8-5.6v-139c0-16.4,4.8-27.8,14.3-34.1c15.2-5.3,33.9-2,56.1,9.8c0.2,0,0.4,0.1,0.5,0.2
		c29.3,15.8,54.3,39.6,75.1,71.6c19.9,30.5,30,59.7,30.5,87.7v138.9c23.1,24.4,45,22.5,65.8-5.5v-139c0.5-38.9-12.9-79.4-40.3-121.4
		C1601.3,131.2,1569.3,101,1531.9,81z"/>
	<polygon class="st1" points="1604.2,841.3 1604.2,999.8 1780.5,893.7 1816.3,872.1 1816.3,712.4 1780.5,734.1 	"/>
	<polygon class="st2" points="1303.8,467.6 1303.8,381.8 1165.5,301 1165.5,467.6 1165.5,765.8 1604.2,1000.1 1604.2,999.8 
		1604.2,841.3 1303.8,686.3 	"/>
	<text transform="matrix(0.8005 -0.4504 3.214186e-02 0.9995 1620.1541 944.7054)" class="st2 st3 st4">ytix</text>
</g>
<g id="lytix_blue_3">
	<path class="st0" d="M454.5,1400c-0.2-0.1-0.4-0.2-0.6-0.4c-44.6-23.8-82.8-27.4-114.6-10.6c-37.8,15.6-56.8,48.7-56.8,99.2v139
		c23.1,26,45.1,24.1,65.8-5.6v-139c0-16.4,4.8-27.8,14.3-34c15.2-5.3,33.9-2.1,56.1,9.8c0.2,0,0.4,0.1,0.5,0.2
		c29.3,15.8,54.3,39.7,75.1,71.5c19.9,30.5,30,59.7,30.5,87.7v138.9c23.1,24.4,45,22.5,65.8-5.5v-139c0.5-38.9-13-79.4-40.3-121.5
		C524,1450.2,492,1419.9,454.5,1400z"/>
	<polygon class="st1" points="526.8,2160.3 526.8,2318.8 703.1,2212.7 738.9,2191.1 738.9,2031.4 703.1,2053.1 	"/>
	<polygon class="st2" points="226.4,1786.6 226.4,1700.8 88.2,1620 88.2,1786.6 88.2,2084.8 526.8,2319.1 526.8,2318.8 
		526.8,2160.3 226.4,2005.3 	"/>
	<text transform="matrix(0.795 -0.4824 -2.652061e-02 0.9996 545.7734 2084.8447)" class="st2 st3 st5">ix</text>
	<text transform="matrix(1.0672 0.6012 -1.001500e-02 0.9999 248.6384 1932.2235)" class="st2 st3 st6 st7">yt</text>
</g>
<g id="lytic_colored_3">
	<path class="st8" d="M2905.4,1471.2c-0.2-0.1-0.4-0.2-0.6-0.4c-44.6-23.8-82.8-27.4-114.7-10.6c-37.8,15.6-56.8,48.7-56.8,99.2v139
		c23.1,26,45.1,24.1,65.8-5.6v-139c0-16.4,4.8-27.8,14.3-34c15.2-5.3,33.9-2.1,56.1,9.8c0.2,0,0.4,0.1,0.5,0.2
		c29.3,15.8,54.3,39.7,75.1,71.5c19.9,30.5,30.1,59.7,30.6,87.7V1828c23.1,24.4,45,22.5,65.8-5.5v-139
		c0.5-38.9-12.9-79.4-40.4-121.5C2974.8,1521.4,2942.8,1491.1,2905.4,1471.2z"/>
	<polygon class="st9" points="2977.7,2231.5 2977.7,2390 3154,2283.9 3189.8,2262.3 3189.8,2102.6 3154,2124.3 	"/>
	<polygon class="st2" points="2677.3,1857.8 2677.3,1772 2539,1691.2 2539,1857.8 2539,2156 2977.7,2390.3 2977.7,2390 
		2977.7,2231.5 2677.3,2076.5 	"/>
	<text transform="matrix(0.795 -0.4824 -2.652061e-02 0.9996 2996.5876 2156.0627)" class="st9 st3 st5">ix</text>
	<text transform="matrix(1.0672 0.6012 -1.001500e-02 0.9999 2699.4529 2003.4417)" class="st2 st3 st6 st7">yt</text>
</g>
<g id="lytix_colored_4">
	<path class="st0" d="M3684.2,1439c-0.2-0.1-0.4-0.2-0.6-0.4c-44.6-23.8-82.8-27.4-114.7-10.6c-37.8,15.6-56.8,48.7-56.8,99.2v139
		c23.1,26,45.1,24.1,65.8-5.6v-139c0-16.4,4.8-27.8,14.3-34c15.2-5.3,33.9-2.1,56.1,9.8c0.2,0,0.4,0.1,0.5,0.2
		c29.3,15.8,54.3,39.7,75.1,71.5c19.9,30.5,30.1,59.7,30.6,87.7v138.9c23.1,24.4,45,22.5,65.8-5.5v-139
		c0.5-38.9-12.9-79.4-40.4-121.5C3753.6,1489.2,3721.7,1458.9,3684.2,1439z"/>
	<polygon class="st10" points="3756.5,2199.2 3756.5,2357.8 3932.8,2251.6 3968.6,2230.1 3968.6,2070.4 3932.8,2092.1 	"/>
	<polygon class="st11" points="3456.1,1825.6 3456.1,1739.8 3317.9,1658.9 3317.9,1825.6 3317.9,2123.8 3756.5,2358.1 
		3756.5,2357.8 3756.5,2199.2 3456.1,2044.3 	"/>
	<text transform="matrix(0.795 -0.4824 -2.652061e-02 0.9996 3775.4492 2123.8408)" class="st10 st3 st5">ix</text>
	<text transform="matrix(1.0672 0.6012 -1.001500e-02 0.9999 3478.3145 1971.2197)" class="st11 st3 st6 st7">yt</text>
</g>
<g id="lytix_colored_5">
	<path class="st12" d="M2740.4,201.7c-0.2-0.1-0.4-0.2-0.6-0.4c-44.6-23.8-82.8-27.4-114.7-10.6c-37.8,15.6-56.8,48.7-56.8,99.2v139
		c23.1,26,45.1,24.1,65.8-5.6v-139c0-16.4,4.8-27.8,14.3-34.1c15.2-5.3,33.9-2,56.1,9.8c0.2,0,0.4,0.1,0.5,0.2
		c29.3,15.8,54.3,39.6,75.1,71.5c19.9,30.5,30.1,59.7,30.6,87.7v139c23.1,24.4,45,22.5,65.8-5.5v-139c0.5-38.9-12.9-79.4-40.4-121.5
		C2809.8,251.9,2777.9,221.6,2740.4,201.7z"/>
	<polygon class="st13" points="2812.7,962 2812.7,1120.5 2989,1014.4 3024.8,992.8 3024.8,833.1 2989,854.8 	"/>
	<polygon class="st14" points="2512.3,588.3 2512.3,502.5 2374.1,421.7 2374.1,588.3 2374.1,886.5 2812.7,1120.8 2812.7,1120.5 
		2812.7,962 2512.3,807 	"/>
	<text transform="matrix(0.795 -0.4824 -2.652061e-02 0.9996 2831.6577 886.5559)" class="st13 st3 st5">ix</text>
	<text transform="matrix(1.0672 0.6012 -1.001500e-02 0.9999 2534.5229 733.9349)" class="st14 st3 st6 st7">yt</text>
</g>
<g id="lytix_colored_1">
	<path class="st15" d="M1229.6,1400c-0.2-0.1-0.3-0.2-0.6-0.4c-44.6-23.8-82.8-27.4-114.6-10.6c-37.8,15.6-56.8,48.7-56.8,99.2v139
		c23.1,26,45.1,24.1,65.8-5.6v-139c0-16.4,4.8-27.8,14.3-34c15.2-5.3,33.9-2.1,56.1,9.8c0.2,0,0.4,0.1,0.6,0.2
		c29.3,15.8,54.3,39.7,75.1,71.5c19.9,30.5,30,59.7,30.5,87.7v138.9c23.1,24.4,45,22.5,65.8-5.5v-139c0.5-38.9-12.9-79.4-40.3-121.5
		C1299,1450.2,1267.1,1419.9,1229.6,1400z"/>
	<polygon class="st16" points="1301.9,2160.3 1301.9,2318.8 1478.2,2212.7 1514,2191.1 1514,2031.4 1478.2,2053.1 	"/>
	<polygon class="st2" points="1001.5,1786.6 1001.5,1700.8 863.2,1620 863.2,1786.6 863.2,2084.8 1301.9,2319.1 1301.9,2318.8 
		1301.9,2160.3 1001.5,2005.3 	"/>
	<text transform="matrix(0.795 -0.4824 -2.652061e-02 0.9996 1320.8157 2084.8447)" class="st16 st3 st5">ix</text>
	<text transform="matrix(1.0672 0.6012 -1.001500e-02 0.9999 1028.6807 1925.2235)" class="st2 st3 st6">yt</text>
</g>
<g id="lytix_colored_2">
	<path class="st0" d="M2126.5,1400c-0.2-0.1-0.3-0.2-0.6-0.4c-44.6-23.8-82.8-27.4-114.6-10.6c-37.8,15.6-56.8,48.7-56.8,99.2v139
		c23.1,26,45.1,24.1,65.8-5.6v-139c0-16.4,4.8-27.8,14.3-34c15.2-5.3,33.9-2.1,56.1,9.8c0.2,0,0.4,0.1,0.6,0.2
		c29.3,15.8,54.3,39.7,75.1,71.5c19.9,30.5,30,59.7,30.5,87.7v138.9c23.1,24.4,45,22.5,65.8-5.5v-139c0.5-38.9-12.9-79.4-40.3-121.5
		C2195.9,1450.2,2164,1419.9,2126.5,1400z"/>
	<polygon class="st17" points="2198.8,2160.3 2198.8,2318.8 2375.1,2212.7 2410.9,2191.1 2410.9,2031.4 2375.1,2053.1 	"/>
	<polygon class="st18" points="1898.4,1786.6 1898.4,1700.8 1760.1,1620 1760.1,1786.6 1760.1,2084.8 2198.8,2319.1 2198.8,2318.8 
		2198.8,2160.3 1898.4,2005.3 	"/>
	<text transform="matrix(0.795 -0.4824 -2.652061e-02 0.9996 2217.7263 2084.8447)" class="st17 st3 st5">ix</text>
	<text transform="matrix(1.0672 0.6012 -1.001500e-02 0.9999 1925.5913 1925.2235)" class="st18 st3 st6">yt</text>
</g>
<g id="lytix_grey">
	<path class="st19" d="M4076.2,392.6v-139c0.5-38.9-13-79.4-40.4-121.4c-26.4-40.6-58.4-70.8-95.8-90.8c-0.2-0.1-0.4-0.2-0.6-0.4
		c-4-2.1-7.9-4.1-11.8-5.9c-39.5-18.4-73.8-20-102.9-4.7c-3.4,1.4-6.7,3-9.8,4.7c-31.3,17.1-46.9,48.6-46.9,94.5v139
		c23.1,26,45.1,24.1,65.8-5.6V124c0-16.4,4.8-27.8,14.3-34.1c15.2-5.3,33.9-2.1,56.1,9.8c0.2,0,0.4,0.1,0.5,0.2
		c29.3,15.8,54.3,39.7,75.1,71.6c19.9,30.5,30.1,59.7,30.6,87.7v138.9C4033.5,422.6,4055.5,420.7,4076.2,392.6z"/>
	<polygon class="st2" points="3711.9,646.7 3711.9,623.3 3711.9,451.1 3711.9,342.2 3573.6,261.4 3573.6,451.1 3573.6,623.3 
		3573.6,726.2 4012.3,960.5 4012.3,960.2 4012.3,801.7 	"/>
	<polygon class="st1" points="4124.5,733.5 4012.3,801.7 4012.3,960.2 4124.5,892.7 4224.4,832.5 4224.4,672.8 	"/>
</g>
</svg>
